<svg width="785" height="49" viewBox="0 0 785 49" fill="none" xmlns="http://www.w3.org/2000/svg">
<path d="M14.0938 33.6562L14.9688 39.6562L16.25 34.25L25.25 2.5H30.3125L39.0938 34.25L40.3438 39.75L41.3125 33.625L48.375 2.5H54.4062L43.375 48H37.9062L28.5312 14.8438L27.8125 11.375L27.0938 14.8438L17.375 48H11.9062L0.90625 2.5H6.90625L14.0938 33.6562ZM73.2188 48.625C68.6354 48.625 64.9062 47.125 62.0312 44.125C59.1562 41.1042 57.7188 37.0729 57.7188 32.0312V30.9688C57.7188 27.6146 58.3542 24.625 59.625 22C60.9167 19.3542 62.7083 17.2917 65 15.8125C67.3125 14.3125 69.8125 13.5625 72.5 13.5625C76.8958 13.5625 80.3125 15.0104 82.75 17.9062C85.1875 20.8021 86.4062 24.9479 86.4062 30.3438V32.75H63.5C63.5833 36.0833 64.5521 38.7812 66.4062 40.8438C68.2812 42.8854 70.6562 43.9062 73.5312 43.9062C75.5729 43.9062 77.3021 43.4896 78.7188 42.6562C80.1354 41.8229 81.375 40.7188 82.4375 39.3438L85.9688 42.0938C83.1354 46.4479 78.8854 48.625 73.2188 48.625ZM72.5 18.3125C70.1667 18.3125 68.2083 19.1667 66.625 20.875C65.0417 22.5625 64.0625 24.9375 63.6875 28H80.625V27.5625C80.4583 24.625 79.6667 22.3542 78.25 20.75C76.8333 19.125 74.9167 18.3125 72.5 18.3125ZM99.4062 48H93.625V0H99.4062V48ZM122.25 43.9062C124.312 43.9062 126.115 43.2812 127.656 42.0312C129.198 40.7812 130.052 39.2188 130.219 37.3438H135.688C135.583 39.2812 134.917 41.125 133.688 42.875C132.458 44.625 130.812 46.0208 128.75 47.0625C126.708 48.1042 124.542 48.625 122.25 48.625C117.646 48.625 113.979 47.0938 111.25 44.0312C108.542 40.9479 107.188 36.7396 107.188 31.4062V30.4375C107.188 27.1458 107.792 24.2188 109 21.6562C110.208 19.0938 111.938 17.1042 114.188 15.6875C116.458 14.2708 119.135 13.5625 122.219 13.5625C126.01 13.5625 129.156 14.6979 131.656 16.9688C134.177 19.2396 135.521 22.1875 135.688 25.8125H130.219C130.052 23.625 129.219 21.8333 127.719 20.4375C126.24 19.0208 124.406 18.3125 122.219 18.3125C119.281 18.3125 117 19.375 115.375 21.5C113.771 23.6042 112.969 26.6562 112.969 30.6562V31.75C112.969 35.6458 113.771 38.6458 115.375 40.75C116.979 42.8542 119.271 43.9062 122.25 43.9062ZM140.656 30.7812C140.656 27.4688 141.302 24.4896 142.594 21.8438C143.906 19.1979 145.719 17.1562 148.031 15.7188C150.365 14.2812 153.021 13.5625 156 13.5625C160.604 13.5625 164.323 15.1562 167.156 18.3438C170.01 21.5312 171.438 25.7708 171.438 31.0625V31.4688C171.438 34.7604 170.802 37.7188 169.531 40.3438C168.281 42.9479 166.479 44.9792 164.125 46.4375C161.792 47.8958 159.104 48.625 156.062 48.625C151.479 48.625 147.76 47.0312 144.906 43.8438C142.073 40.6562 140.656 36.4375 140.656 31.1875V30.7812ZM146.469 31.4688C146.469 35.2188 147.333 38.2292 149.062 40.5C150.812 42.7708 153.146 43.9062 156.062 43.9062C159 43.9062 161.333 42.7604 163.062 40.4688C164.792 38.1562 165.656 34.9271 165.656 30.7812C165.656 27.0729 164.771 24.0729 163 21.7812C161.25 19.4688 158.917 18.3125 156 18.3125C153.146 18.3125 150.844 19.4479 149.094 21.7188C147.344 23.9896 146.469 27.2396 146.469 31.4688ZM184.125 14.1875L184.281 17.9375C186.76 15.0208 190.104 13.5625 194.312 13.5625C199.042 13.5625 202.26 15.375 203.969 19C205.094 17.375 206.552 16.0625 208.344 15.0625C210.156 14.0625 212.292 13.5625 214.75 13.5625C222.167 13.5625 225.938 17.4896 226.062 25.3438V48H220.281V25.6875C220.281 23.2708 219.729 21.4688 218.625 20.2812C217.521 19.0729 215.667 18.4688 213.062 18.4688C210.917 18.4688 209.135 19.1146 207.719 20.4062C206.302 21.6771 205.479 23.3958 205.25 25.5625V48H199.438V25.8438C199.438 20.9271 197.031 18.4688 192.219 18.4688C188.427 18.4688 185.833 20.0833 184.438 23.3125V48H178.656V14.1875H184.125ZM248.844 48.625C244.26 48.625 240.531 47.125 237.656 44.125C234.781 41.1042 233.344 37.0729 233.344 32.0312V30.9688C233.344 27.6146 233.979 24.625 235.25 22C236.542 19.3542 238.333 17.2917 240.625 15.8125C242.938 14.3125 245.438 13.5625 248.125 13.5625C252.521 13.5625 255.938 15.0104 258.375 17.9062C260.812 20.8021 262.031 24.9479 262.031 30.3438V32.75H239.125C239.208 36.0833 240.177 38.7812 242.031 40.8438C243.906 42.8854 246.281 43.9062 249.156 43.9062C251.198 43.9062 252.927 43.4896 254.344 42.6562C255.76 41.8229 257 40.7188 258.062 39.3438L261.594 42.0938C258.76 46.4479 254.51 48.625 248.844 48.625ZM248.125 18.3125C245.792 18.3125 243.833 19.1667 242.25 20.875C240.667 22.5625 239.688 24.9375 239.312 28H256.25V27.5625C256.083 24.625 255.292 22.3542 253.875 20.75C252.458 19.125 250.542 18.3125 248.125 18.3125ZM292.469 6V14.1875H298.781V18.6562H292.469V39.625C292.469 40.9792 292.75 42 293.312 42.6875C293.875 43.3542 294.833 43.6875 296.188 43.6875C296.854 43.6875 297.771 43.5625 298.938 43.3125V48C297.417 48.4167 295.938 48.625 294.5 48.625C291.917 48.625 289.969 47.8438 288.656 46.2812C287.344 44.7188 286.688 42.5 286.688 39.625V18.6562H280.531V14.1875H286.688V6H292.469ZM303.406 30.7812C303.406 27.4688 304.052 24.4896 305.344 21.8438C306.656 19.1979 308.469 17.1562 310.781 15.7188C313.115 14.2812 315.771 13.5625 318.75 13.5625C323.354 13.5625 327.073 15.1562 329.906 18.3438C332.76 21.5312 334.188 25.7708 334.188 31.0625V31.4688C334.188 34.7604 333.552 37.7188 332.281 40.3438C331.031 42.9479 329.229 44.9792 326.875 46.4375C324.542 47.8958 321.854 48.625 318.812 48.625C314.229 48.625 310.51 47.0312 307.656 43.8438C304.823 40.6562 303.406 36.4375 303.406 31.1875V30.7812ZM309.219 31.4688C309.219 35.2188 310.083 38.2292 311.812 40.5C313.562 42.7708 315.896 43.9062 318.812 43.9062C321.75 43.9062 324.083 42.7604 325.812 40.4688C327.542 38.1562 328.406 34.9271 328.406 30.7812C328.406 27.0729 327.521 24.0729 325.75 21.7812C324 19.4688 321.667 18.3125 318.75 18.3125C315.896 18.3125 313.594 19.4479 311.844 21.7188C310.094 23.9896 309.219 27.2396 309.219 31.4688ZM391.812 42.0312C390.271 44.2396 388.115 45.8958 385.344 47C382.594 48.0833 379.385 48.625 375.719 48.625C372.01 48.625 368.719 47.7604 365.844 46.0312C362.969 44.2812 360.74 41.8021 359.156 38.5938C357.594 35.3854 356.792 31.6667 356.75 27.4375V23.4688C356.75 16.6146 358.344 11.3021 361.531 7.53125C364.74 3.76042 369.24 1.875 375.031 1.875C379.781 1.875 383.604 3.09375 386.5 5.53125C389.396 7.94792 391.167 11.3854 391.812 15.8438H385.812C384.688 9.82292 381.104 6.8125 375.062 6.8125C371.042 6.8125 367.99 8.22917 365.906 11.0625C363.844 13.875 362.802 17.9583 362.781 23.3125V27.0312C362.781 32.1354 363.948 36.1979 366.281 39.2188C368.615 42.2188 371.771 43.7188 375.75 43.7188C378 43.7188 379.969 43.4688 381.656 42.9688C383.344 42.4688 384.74 41.625 385.844 40.4375V30.2188H375.312V25.3438H391.812V42.0312ZM407.875 43.0938H429.438V48H401.844V2.5H407.875V43.0938ZM462.031 36.125H442.969L438.688 48H432.5L449.875 2.5H455.125L472.531 48H466.375L462.031 36.125ZM444.781 31.1875H460.25L452.5 9.90625L444.781 31.1875ZM493.5 19.9375L504.406 2.5H511.469L497.094 25.0625L511.812 48H504.688L493.5 30.25L482.25 48H475.156L489.906 25.0625L475.5 2.5H482.531L493.5 19.9375ZM552.969 26.7188C552.969 31.1771 552.219 35.0729 550.719 38.4062C549.219 41.7188 547.094 44.25 544.344 46C541.594 47.75 538.385 48.625 534.719 48.625C531.135 48.625 527.958 47.75 525.188 46C522.417 44.2292 520.26 41.7188 518.719 38.4688C517.198 35.1979 516.417 31.4167 516.375 27.125V23.8438C516.375 19.4688 517.135 15.6042 518.656 12.25C520.177 8.89583 522.323 6.33333 525.094 4.5625C527.885 2.77083 531.073 1.875 534.656 1.875C538.302 1.875 541.51 2.76042 544.281 4.53125C547.073 6.28125 549.219 8.83333 550.719 12.1875C552.219 15.5208 552.969 19.4062 552.969 23.8438V26.7188ZM547 23.7812C547 18.3854 545.917 14.25 543.75 11.375C541.583 8.47917 538.552 7.03125 534.656 7.03125C530.865 7.03125 527.875 8.47917 525.688 11.375C523.521 14.25 522.406 18.25 522.344 23.375V26.7188C522.344 31.9479 523.438 36.0625 525.625 39.0625C527.833 42.0417 530.865 43.5312 534.719 43.5312C538.594 43.5312 541.594 42.125 543.719 39.3125C545.844 36.4792 546.938 32.4271 547 27.1562V23.7812ZM561.969 48V2.5H574.812C578.771 2.5 582.271 3.375 585.312 5.125C588.354 6.875 590.698 9.36458 592.344 12.5938C594.01 15.8229 594.854 19.5312 594.875 23.7188V26.625C594.875 30.9167 594.042 34.6771 592.375 37.9062C590.729 41.1354 588.365 43.6146 585.281 45.3438C582.219 47.0729 578.646 47.9583 574.562 48H561.969ZM567.969 7.4375V43.0938H574.281C578.906 43.0938 582.5 41.6562 585.062 38.7812C587.646 35.9062 588.938 31.8125 588.938 26.5V23.8438C588.938 18.6771 587.719 14.6667 585.281 11.8125C582.865 8.9375 579.427 7.47917 574.969 7.4375H567.969ZM629.688 26.9688H609.969V43.0938H632.875V48H603.969V2.5H632.562V7.4375H609.969V22.0625H629.688V26.9688ZM657.031 29.5938H646.344V48H640.312V2.5H655.375C660.5 2.5 664.438 3.66667 667.188 6C669.958 8.33333 671.344 11.7292 671.344 16.1875C671.344 19.0208 670.573 21.4896 669.031 23.5938C667.51 25.6979 665.385 27.2708 662.656 28.3125L673.344 47.625V48H666.906L657.031 29.5938ZM646.344 24.6875H655.562C658.542 24.6875 660.906 23.9167 662.656 22.375C664.427 20.8333 665.312 18.7708 665.312 16.1875C665.312 13.375 664.469 11.2188 662.781 9.71875C661.115 8.21875 658.698 7.45833 655.531 7.4375H646.344V24.6875ZM687.531 2.5L702.406 39.625L717.281 2.5H725.062V48H719.062V30.2812L719.625 11.1562L704.688 48H700.094L685.188 11.25L685.781 30.2812V48H679.781V2.5H687.531ZM761.344 36.125H742.281L738 48H731.812L749.188 2.5H754.438L771.844 48H765.688L761.344 36.125ZM744.094 31.1875H759.562L751.812 9.90625L744.094 31.1875ZM783.531 35.1562H778.312L777.906 2.5H783.969L783.531 35.1562ZM777.688 45.0938C777.688 44.1562 777.969 43.375 778.531 42.75C779.115 42.1042 779.969 41.7812 781.094 41.7812C782.219 41.7812 783.073 42.1042 783.656 42.75C784.24 43.375 784.531 44.1562 784.531 45.0938C784.531 46.0312 784.24 46.8125 783.656 47.4375C783.073 48.0417 782.219 48.3438 781.094 48.3438C779.969 48.3438 779.115 48.0417 778.531 47.4375C777.969 46.8125 777.688 46.0312 777.688 45.0938Z" fill="white"/>
</svg>
